<?xml version="1.0" encoding="utf-8"?>
<!-- Generator: Adobe Illustrator 27.1.1, SVG Export Plug-In . SVG Version: 6.00 Build 0)  -->
<svg version="1.1" id="Layer_1" xmlns="http://www.w3.org/2000/svg" xmlns:xlink="http://www.w3.org/1999/xlink" x="0px" y="0px"
	 viewBox="0 0 100 100" style="enable-background:new 0 0 100 100;" xml:space="preserve">
<style type="text/css">
	.st0{fill:#FFFFFF;stroke:#000000;stroke-width:4;stroke-linecap:round;stroke-linejoin:bevel;stroke-miterlimit:10;}
	.st1{fill:#FFFFFF;stroke:#000000;stroke-miterlimit:10;}
</style>
<g>
	<path class="st0" d="M26.1,25.8h-7.4v-3.5c0-1.6-0.1-2.7-0.3-3.1c-0.2-0.5-0.5-0.7-1-0.7c-0.5,0-0.8,0.3-1.1,0.9
		C16.1,20,16,20.9,16,22.2c0,1.6,0.1,2.8,0.4,3.6c0.3,0.8,1,1.8,2.3,2.9c3.6,3.3,5.8,6,6.7,8.1c0.9,2.1,1.4,5.5,1.4,10.2
		c0,3.4-0.3,5.9-0.8,7.5c-0.5,1.6-1.5,3-3,4s-3.2,1.6-5.1,1.6c-2.1,0-4-0.6-5.5-1.9s-2.5-2.9-3-4.8c-0.5-1.9-0.7-4.7-0.7-8.3V42h7.4
		v5.8c0,1.8,0.1,2.9,0.3,3.4c0.2,0.5,0.6,0.8,1.1,0.8s0.9-0.3,1.2-1c0.3-0.6,0.4-1.6,0.4-2.9c0-2.8-0.2-4.6-0.7-5.5
		c-0.5-0.9-1.8-2.3-3.8-4.3c-2-2-3.3-3.5-4-4.4c-0.6-0.9-1.2-2.2-1.6-3.8c-0.4-1.6-0.6-3.7-0.6-6.2c0-3.6,0.3-6.3,0.9-8
		c0.6-1.7,1.6-3,2.9-4c1.3-1,3-1.4,4.9-1.4c2.1,0,3.9,0.5,5.3,1.6c1.5,1,2.4,2.4,2.9,3.9c0.5,1.6,0.7,4.3,0.7,8.1V25.8z"/>
	<path class="st0" d="M29.3,11.4h8.1c2.2,0,3.9,0.3,5,0.8c1.2,0.5,2.1,1.3,2.6,2.3c0.6,1,1,2.2,1.2,3.6c0.2,1.4,0.3,3.6,0.3,6.6v4.2
		c0,3-0.2,5.3-0.6,6.7c-0.4,1.4-1.2,2.5-2.2,3.2c-1.1,0.7-2.5,1.1-4.3,1.1h-2.2v19.2h-8V11.4z M37.3,19.6v12.1c0.2,0,0.4,0,0.6,0
		c0.7,0,1.2-0.3,1.5-0.8c0.3-0.6,0.4-1.7,0.4-3.5v-3.9c0-1.6-0.2-2.7-0.5-3.2C39,19.8,38.4,19.6,37.3,19.6z"/>
	<path class="st0" d="M58.1,35.4v8.2H48v-8.2H58.1z"/>
	<path class="st0" d="M68.4,11.4v47.7h-8V11.4H68.4z"/>
	<path class="st0" d="M79.6,11.4v47.7h-8V11.4H79.6z"/>
	<path class="st0" d="M90.8,11.4v47.7h-8V11.4H90.8z"/>
</g>
<g>
	<path class="st1" d="M8.9,65.4v20.3h2.5v5.1H4.8V65.4H8.9z"/>
	<path class="st1" d="M19.9,65.4l2.3,25.3H18l-0.2-4.6h-1.5l-0.2,4.6h-4.2L14,65.4H19.9z M17.7,81.6c-0.2-2.9-0.4-6.4-0.6-10.6
		c-0.4,4.8-0.7,8.4-0.8,10.6H17.7z"/>
	<path class="st1" d="M22.9,65.4H27c1.3,0,2.3,0.2,2.9,0.5s1.2,1,1.6,2s0.6,2.6,0.6,4.8c0,1.5-0.1,2.5-0.4,3.1
		c-0.3,0.6-0.9,1-1.7,1.3c0.9,0.3,1.6,0.9,1.9,1.7c0.3,0.8,0.5,2,0.5,3.7v2.3c0,1.7-0.1,3-0.4,3.8c-0.2,0.8-0.6,1.4-1.2,1.7
		s-1.6,0.5-3.3,0.5h-4.7V65.4z M27,69.7v5.6c0.2,0,0.3,0,0.4,0c0.4,0,0.7-0.2,0.8-0.5c0.1-0.3,0.2-1.2,0.2-2.7c0-0.8,0-1.3-0.1-1.7
		c-0.1-0.3-0.2-0.5-0.4-0.6C27.7,69.7,27.4,69.7,27,69.7z M27,79.3v7.1c0.6,0,0.9-0.2,1.1-0.4c0.2-0.3,0.2-0.9,0.2-1.9v-2.4
		c0-1.1-0.1-1.7-0.2-2C28,79.4,27.6,79.3,27,79.3z"/>
	<path class="st1" d="M37.3,65.4h2.9c1.9,0,3.2,0.1,3.9,0.4c0.7,0.2,1.2,0.9,1.7,1.8c0.4,1,0.6,2.6,0.6,4.7c0,2-0.2,3.3-0.5,4
		c-0.3,0.7-0.9,1.1-1.8,1.2c0.8,0.3,1.3,0.8,1.6,1.3c0.3,0.5,0.4,1,0.5,1.5c0.1,0.5,0.1,1.7,0.1,3.7v6.7h-3.8v-8.4
		c0-1.4-0.1-2.2-0.2-2.5c-0.1-0.3-0.5-0.5-1-0.5v11.4h-4.1V65.4z M41.4,69.7v5.6c0.5,0,0.8-0.1,1-0.3c0.2-0.2,0.3-0.9,0.3-2v-1.4
		c0-0.8-0.1-1.3-0.3-1.6C42.2,69.8,41.9,69.7,41.4,69.7z"/>
	<path class="st1" d="M48,65.4h6.8v5.1h-2.7v4.8h2.5V80h-2.5v5.6h3v5.1H48V65.4z"/>
	<path class="st1" d="M56.2,65.4h4.1c1.1,0,2,0.1,2.6,0.4c0.6,0.3,1,0.7,1.3,1.2c0.3,0.5,0.5,1.2,0.6,1.9s0.2,1.9,0.2,3.5v2.2
		c0,1.6-0.1,2.8-0.3,3.5s-0.6,1.3-1.1,1.7c-0.6,0.4-1.3,0.6-2.2,0.6h-1.1v10.2h-4.1V65.4z M60.3,69.7v6.4c0.1,0,0.2,0,0.3,0
		c0.4,0,0.6-0.1,0.8-0.4c0.1-0.3,0.2-0.9,0.2-1.9v-2.1c0-0.9-0.1-1.4-0.3-1.7C61.2,69.8,60.8,69.7,60.3,69.7z"/>
	<path class="st1" d="M75.5,80.2c0,2.5,0,4.3-0.1,5.4c-0.1,1.1-0.3,2-0.7,2.9c-0.4,0.9-0.9,1.5-1.6,2c-0.7,0.5-1.4,0.7-2.3,0.7
		c-0.8,0-1.6-0.2-2.3-0.7c-0.7-0.4-1.2-1.1-1.6-2c-0.4-0.9-0.6-1.9-0.7-2.9s-0.1-2.9-0.1-5.5v-4.3c0-2.5,0-4.3,0.1-5.4
		c0.1-1.1,0.3-2,0.7-2.9c0.4-0.9,0.9-1.5,1.6-2c0.7-0.5,1.4-0.7,2.3-0.7c0.8,0,1.6,0.2,2.3,0.7c0.7,0.4,1.2,1.1,1.6,2
		c0.4,0.9,0.6,1.9,0.7,2.9c0.1,1,0.1,2.9,0.1,5.5V80.2z M71.4,71.9c0-1.2,0-1.9-0.1-2.3c-0.1-0.3-0.2-0.5-0.5-0.5
		c-0.2,0-0.4,0.1-0.5,0.4c-0.1,0.3-0.2,1.1-0.2,2.4v11.8c0,1.5,0,2.4,0.1,2.7c0.1,0.3,0.2,0.5,0.5,0.5c0.3,0,0.5-0.2,0.5-0.6
		c0.1-0.4,0.1-1.3,0.1-2.8V71.9z"/>
	<path class="st1" d="M77,65.4h2.9c1.9,0,3.2,0.1,3.9,0.4c0.7,0.2,1.2,0.9,1.7,1.8s0.6,2.6,0.6,4.7c0,2-0.2,3.3-0.5,4
		c-0.3,0.7-0.9,1.1-1.8,1.2c0.8,0.3,1.3,0.8,1.6,1.3c0.3,0.5,0.5,1,0.5,1.5c0.1,0.5,0.1,1.7,0.1,3.7v6.7h-3.8v-8.4
		c0-1.4-0.1-2.2-0.2-2.5c-0.1-0.3-0.5-0.5-1-0.5v11.4H77V65.4z M81.1,69.7v5.6c0.5,0,0.8-0.1,1-0.3c0.2-0.2,0.3-0.9,0.3-2v-1.4
		c0-0.8-0.1-1.3-0.3-1.6S81.6,69.7,81.1,69.7z"/>
	<path class="st1" d="M95.9,65.4v5.1h-2.4v20.3h-4.1V70.4H87v-5.1H95.9z"/>
</g>
<g>
</g>
<g>
</g>
<g>
</g>
<g>
</g>
<g>
</g>
<g>
</g>
<g>
</g>
<g>
</g>
<g>
</g>
<g>
</g>
<g>
</g>
</svg>
